<svg xmlns="http://www.w3.org/2000/svg" viewBox="0 0 120 120">
  <defs>
    <radialGradient id="ar" cx="45%" cy="35%" r="65%">
      <stop offset="0%" stop-color="#ff3030"/>
      <stop offset="100%" stop-color="#9B0000"/>
    </radialGradient>
  </defs>
  <!-- Shield -->
  <path d="M60 4 L108 22 L108 72 Q108 104 60 118 Q12 104 12 72 L12 22 Z" fill="url(#ar)"/>
  <path d="M60 11 L101 27 L101 71 Q101 99 60 112 Q19 99 19 71 L19 27 Z" fill="none" stroke="rgba(255,220,80,0.45)" stroke-width="1.8"/>
  <!-- Cannon body -->
  <rect x="26" y="56" width="58" height="13" rx="6.5" fill="#F5C518"/>
  <rect x="22" y="58" width="10" height="9" rx="2" fill="#F5C518"/>
  <!-- Cannon barrel tip -->
  <rect x="80" y="58" width="16" height="9" rx="4.5" fill="#F5C518"/>
  <!-- Wheels -->
  <circle cx="37" cy="75" r="9" fill="#F5C518"/>
  <circle cx="37" cy="75" r="4" fill="#9B0000"/>
  <circle cx="73" cy="75" r="9" fill="#F5C518"/>
  <circle cx="73" cy="75" r="4" fill="#9B0000"/>
  <!-- Text -->
  <text x="60" y="38" font-family="Arial Black,Arial" font-size="10.5" font-weight="900" fill="white" text-anchor="middle" letter-spacing="2.5">ARSENAL</text>
  <text x="60" y="52" font-family="Arial,sans-serif" font-size="8" font-weight="700" fill="rgba(255,255,255,0.7)" text-anchor="middle" letter-spacing="1">F · C</text>
</svg>
