<svg xmlns="http://www.w3.org/2000/svg" viewBox="0 0 120 120">
  <defs>
    <radialGradient id="pg" cx="50%" cy="40%" r="60%">
      <stop offset="0%" stop-color="#1a4a8a"/>
      <stop offset="100%" stop-color="#00205C"/>
    </radialGradient>
  </defs>
  <!-- Shield -->
  <path d="M60 4 L108 22 L108 72 Q108 104 60 118 Q12 104 12 72 L12 22 Z" fill="url(#pg)"/>
  <path d="M60 11 L101 27 L101 71 Q101 99 60 112 Q19 99 19 71 L19 27 Z" fill="none" stroke="rgba(255,255,255,0.2)" stroke-width="1.5"/>
  <!-- Red band -->
  <rect x="12" y="54" width="96" height="16" fill="#E30613"/>
  <!-- Eiffel tower simplified -->
  <polygon points="60,18 54,54 66,54" fill="white" opacity="0.95"/>
  <rect x="54" y="50" width="12" height="4" rx="1" fill="white" opacity="0.95"/>
  <polygon points="60,28 50,54 70,54" fill="none" stroke="rgba(0,32,92,0.3)" stroke-width="0.5"/>
  <rect x="51" y="37" width="18" height="3" rx="1.5" fill="rgba(0,32,92,0.25)"/>
  <rect x="53" y="44" width="14" height="2.5" rx="1.2" fill="rgba(0,32,92,0.25)"/>
  <!-- PSG text -->
  <text x="60" y="88" font-family="Arial Black,Arial" font-size="16" font-weight="900" fill="white" text-anchor="middle" letter-spacing="2">PSG</text>
  <!-- Stars -->
  <text x="60" y="106" font-family="Arial" font-size="9" fill="rgba(255,255,255,0.6)" text-anchor="middle" letter-spacing="6">★★★</text>
</svg>
